<svg width="69" height="10" viewBox="0 0 69 10" fill="none" xmlns="http://www.w3.org/2000/svg">
<path d="M2.19 9.38C1.91 9.38 1.7 9.3 1.56 9.14C1.42 8.98667 1.35 8.79333 1.35 8.56V7.93C1.35 7.75 1.36667 7.59333 1.4 7.46C1.44 7.32667 1.48667 7.20667 1.54 7.1C1.59333 6.99333 1.65333 6.9 1.72 6.82C1.78667 6.73333 1.85 6.65333 1.91 6.58C2.02333 6.44667 2.1 6.33333 2.14 6.24C2.18667 6.14 2.21 6.03667 2.21 5.93C2.21 5.67667 2.09333 5.49333 1.86 5.38C1.62667 5.26 1.28333 5.2 0.83 5.2H0.05V4.58H0.83C1.28333 4.58 1.62667 4.52333 1.86 4.41C2.09333 4.29 2.21 4.10333 2.21 3.85C2.21 3.74333 2.18667 3.64333 2.14 3.55C2.1 3.45 2.02333 3.33333 1.91 3.2C1.85 3.12667 1.78667 3.05 1.72 2.97C1.65333 2.88333 1.59333 2.79 1.54 2.69C1.48667 2.58333 1.44 2.46333 1.4 2.33C1.36667 2.19 1.35 2.03 1.35 1.85V1.22C1.35 0.986666 1.42 0.793333 1.56 0.639999C1.7 0.479999 1.91 0.399999 2.19 0.399999H3.95V1.02H2.04V1.79C2.04 2.06333 2.08 2.27333 2.16 2.42C2.24 2.56667 2.33333 2.71 2.44 2.85C2.55333 2.99667 2.66 3.15 2.76 3.31C2.86 3.46333 2.91 3.64667 2.91 3.86C2.91 4.14 2.81 4.36667 2.61 4.54C2.41667 4.71333 2.15 4.82333 1.81 4.87V4.91C2.15 4.95667 2.41667 5.06667 2.61 5.24C2.81 5.41333 2.91 5.64 2.91 5.92C2.91 6.13333 2.86 6.32 2.76 6.48C2.66 6.63333 2.55333 6.78333 2.44 6.93C2.33333 7.07 2.24 7.21333 2.16 7.36C2.08 7.50667 2.04 7.71667 2.04 7.99V8.76H3.95V9.38H2.19ZM5.94609 1.02H7.89609C8.74943 1.02 9.38609 1.31333 9.80609 1.9C10.2261 2.48667 10.4361 3.35667 10.4361 4.51C10.4361 5.66333 10.2261 6.53333 9.80609 7.12C9.38609 7.70667 8.74943 8 7.89609 8H5.94609V1.02ZM7.85609 7.27C8.41609 7.27 8.83609 7.07667 9.11609 6.69C9.40276 6.30333 9.54609 5.75667 9.54609 5.05V3.97C9.54609 3.26333 9.40276 2.71667 9.11609 2.33C8.83609 1.94333 8.41609 1.75 7.85609 1.75H6.78609V7.27H7.85609ZM14.0822 8.12C13.7089 8.12 13.3722 8.05667 13.0722 7.93C12.7789 7.80333 12.5255 7.62333 12.3122 7.39C12.1055 7.15 11.9455 6.86667 11.8322 6.54C11.7189 6.20667 11.6622 5.83667 11.6622 5.43C11.6622 5.01667 11.7189 4.64333 11.8322 4.31C11.9522 3.97667 12.1155 3.69333 12.3222 3.46C12.5289 3.22 12.7755 3.03667 13.0622 2.91C13.3555 2.78333 13.6789 2.72 14.0322 2.72C14.3789 2.72 14.6922 2.78333 14.9722 2.91C15.2589 3.03667 15.5022 3.21333 15.7022 3.44C15.9022 3.66 16.0555 3.92333 16.1622 4.23C16.2689 4.53667 16.3222 4.87333 16.3222 5.24V5.62H12.5022V5.86C12.5022 6.08667 12.5389 6.29667 12.6122 6.49C12.6855 6.68333 12.7889 6.85 12.9222 6.99C13.0622 7.13 13.2289 7.24 13.4222 7.32C13.6222 7.39333 13.8422 7.43 14.0822 7.43C14.4289 7.43 14.7289 7.35 14.9822 7.19C15.2355 7.03 15.4289 6.81 15.5622 6.53L16.1522 6.93C15.9989 7.27667 15.7422 7.56333 15.3822 7.79C15.0289 8.01 14.5955 8.12 14.0822 8.12ZM14.0322 3.38C13.8122 3.38 13.6089 3.42 13.4222 3.5C13.2355 3.58 13.0722 3.69 12.9322 3.83C12.7989 3.97 12.6922 4.13667 12.6122 4.33C12.5389 4.51667 12.5022 4.72333 12.5022 4.95V5.02H15.4622V4.91C15.4622 4.68333 15.4255 4.47667 15.3522 4.29C15.2855 4.10333 15.1889 3.94333 15.0622 3.81C14.9422 3.67 14.7922 3.56333 14.6122 3.49C14.4389 3.41667 14.2455 3.38 14.0322 3.38ZM19.4783 8L17.6283 2.84H18.4383L19.1783 5L19.9783 7.33H20.0183L20.8183 5L21.5583 2.84H22.3483L20.4983 8H19.4783ZM23.8844 8V1.02H28.2844V1.75H24.7244V4.1H27.9844V4.83H24.7244V8H23.8844ZM32.3005 1.7C32.0671 1.7 31.9038 1.65333 31.8105 1.56C31.7171 1.46 31.6705 1.33667 31.6705 1.19V1.03C31.6705 0.883333 31.7171 0.763333 31.8105 0.67C31.9038 0.57 32.0671 0.52 32.3005 0.52C32.5338 0.52 32.6971 0.57 32.7905 0.67C32.8838 0.763333 32.9305 0.883333 32.9305 1.03V1.19C32.9305 1.33667 32.8838 1.46 32.7905 1.56C32.6971 1.65333 32.5338 1.7 32.3005 1.7ZM30.0405 7.32H31.9005V3.52H30.0405V2.84H32.7005V7.32H34.4405V8H30.0405V7.32ZM35.9566 8V2.84H36.7566V3.68H36.7966C36.8499 3.55333 36.9166 3.43333 36.9966 3.32C37.0766 3.2 37.1732 3.09667 37.2866 3.01C37.4066 2.92333 37.5466 2.85333 37.7066 2.8C37.8666 2.74667 38.0532 2.72 38.2666 2.72C38.8066 2.72 39.2399 2.89333 39.5666 3.24C39.8932 3.58 40.0566 4.06333 40.0566 4.69V8H39.2566V4.83C39.2566 4.35667 39.1532 4.00667 38.9466 3.78C38.7399 3.54667 38.4366 3.43 38.0366 3.43C37.8766 3.43 37.7199 3.45 37.5666 3.49C37.4132 3.53 37.2766 3.59 37.1566 3.67C37.0366 3.75 36.9399 3.85333 36.8666 3.98C36.7932 4.10667 36.7566 4.25333 36.7566 4.42V8H35.9566ZM45.2227 7.16H45.1827C44.8493 7.8 44.3193 8.12 43.5927 8.12C42.9593 8.12 42.4627 7.88333 42.1027 7.41C41.7493 6.93667 41.5727 6.27333 41.5727 5.42C41.5727 4.56667 41.7493 3.90333 42.1027 3.43C42.4627 2.95667 42.9593 2.72 43.5927 2.72C44.3193 2.72 44.8493 3.04 45.1827 3.68H45.2227V0.6H46.0227V8H45.2227V7.16ZM43.9027 7.41C44.0827 7.41 44.2527 7.38667 44.4127 7.34C44.5727 7.29333 44.7127 7.22667 44.8327 7.14C44.9527 7.04667 45.046 6.93667 45.1127 6.81C45.186 6.67667 45.2227 6.52333 45.2227 6.35V4.49C45.2227 4.31667 45.186 4.16667 45.1127 4.04C45.046 3.90667 44.9527 3.79667 44.8327 3.71C44.7127 3.61667 44.5727 3.54667 44.4127 3.5C44.2527 3.45333 44.0827 3.43 43.9027 3.43C43.436 3.43 43.0727 3.57333 42.8127 3.86C42.5593 4.14 42.4327 4.51333 42.4327 4.98V5.86C42.4327 6.32667 42.5593 6.70333 42.8127 6.99C43.0727 7.27 43.436 7.41 43.9027 7.41ZM50.0588 8.12C49.6854 8.12 49.3488 8.05667 49.0488 7.93C48.7554 7.80333 48.5021 7.62333 48.2887 7.39C48.0821 7.15 47.9221 6.86667 47.8088 6.54C47.6954 6.20667 47.6388 5.83667 47.6388 5.43C47.6388 5.01667 47.6954 4.64333 47.8088 4.31C47.9288 3.97667 48.0921 3.69333 48.2988 3.46C48.5054 3.22 48.7521 3.03667 49.0388 2.91C49.3321 2.78333 49.6554 2.72 50.0088 2.72C50.3554 2.72 50.6688 2.78333 50.9488 2.91C51.2354 3.03667 51.4788 3.21333 51.6788 3.44C51.8788 3.66 52.0321 3.92333 52.1388 4.23C52.2454 4.53667 52.2988 4.87333 52.2988 5.24V5.62H48.4788V5.86C48.4788 6.08667 48.5154 6.29667 48.5888 6.49C48.6621 6.68333 48.7654 6.85 48.8988 6.99C49.0388 7.13 49.2054 7.24 49.3988 7.32C49.5988 7.39333 49.8188 7.43 50.0588 7.43C50.4054 7.43 50.7054 7.35 50.9588 7.19C51.2121 7.03 51.4054 6.81 51.5388 6.53L52.1288 6.93C51.9754 7.27667 51.7188 7.56333 51.3588 7.79C51.0054 8.01 50.5721 8.12 50.0588 8.12ZM50.0088 3.38C49.7888 3.38 49.5854 3.42 49.3988 3.5C49.2121 3.58 49.0488 3.69 48.9088 3.83C48.7754 3.97 48.6688 4.13667 48.5888 4.33C48.5154 4.51667 48.4788 4.72333 48.4788 4.95V5.02H51.4388V4.91C51.4388 4.68333 51.4021 4.47667 51.3288 4.29C51.2621 4.10333 51.1654 3.94333 51.0388 3.81C50.9188 3.67 50.7688 3.56333 50.5888 3.49C50.4154 3.41667 50.2221 3.38 50.0088 3.38ZM53.7348 7.32H55.2448V3.52H53.7348V2.84H56.0448V4.14H56.0948C56.2015 3.73333 56.4015 3.41667 56.6948 3.19C56.9948 2.95667 57.3748 2.84 57.8348 2.84H58.5548V3.64H57.5848C57.1248 3.64 56.7515 3.77333 56.4648 4.04C56.1848 4.30667 56.0448 4.65667 56.0448 5.09V7.32H58.0448V8H53.7348V7.32ZM61.7709 0.399999C62.0509 0.399999 62.2609 0.479999 62.4009 0.639999C62.5409 0.793333 62.6109 0.986666 62.6109 1.22V1.85C62.6109 2.03 62.5909 2.19 62.5509 2.33C62.5176 2.46333 62.4743 2.58333 62.4209 2.69C62.3676 2.79 62.3076 2.88333 62.2409 2.97C62.1743 3.05 62.1109 3.12667 62.0509 3.2C61.9376 3.33333 61.8576 3.45 61.8109 3.55C61.7709 3.64333 61.7509 3.74333 61.7509 3.85C61.7509 4.10333 61.8676 4.29 62.1009 4.41C62.3343 4.52333 62.6776 4.58 63.1309 4.58H63.9109V5.2H63.1309C62.6776 5.2 62.3343 5.26 62.1009 5.38C61.8676 5.49333 61.7509 5.67667 61.7509 5.93C61.7509 6.03667 61.7709 6.14 61.8109 6.24C61.8576 6.33333 61.9376 6.44667 62.0509 6.58C62.1109 6.65333 62.1743 6.73333 62.2409 6.82C62.3076 6.9 62.3676 6.99333 62.4209 7.1C62.4743 7.20667 62.5176 7.32667 62.5509 7.46C62.5909 7.59333 62.6109 7.75 62.6109 7.93V8.56C62.6109 8.79333 62.5409 8.98667 62.4009 9.14C62.2609 9.3 62.0509 9.38 61.7709 9.38H60.0109V8.76H61.9209V7.99C61.9209 7.71667 61.8809 7.50667 61.8009 7.36C61.7209 7.21333 61.6276 7.07 61.5209 6.93C61.4076 6.78333 61.3009 6.63333 61.2009 6.48C61.1009 6.32 61.0509 6.13333 61.0509 5.92C61.0509 5.64 61.1476 5.41333 61.3409 5.24C61.5409 5.06667 61.8109 4.95667 62.1509 4.91V4.87C61.8109 4.82333 61.5409 4.71333 61.3409 4.54C61.1476 4.36667 61.0509 4.14 61.0509 3.86C61.0509 3.64667 61.1009 3.46333 61.2009 3.31C61.3009 3.15 61.4076 2.99667 61.5209 2.85C61.6276 2.71 61.7209 2.56667 61.8009 2.42C61.8809 2.27333 61.9209 2.06333 61.9209 1.79V1.02H60.0109V0.399999H61.7709ZM67.527 6.64H68.817L67.667 9.41H66.997L67.527 6.64ZM67.957 4.13C67.6837 4.13 67.4904 4.07333 67.377 3.96C67.2704 3.84667 67.217 3.70333 67.217 3.53V3.35C67.217 3.17667 67.2704 3.03333 67.377 2.92C67.4904 2.80667 67.6837 2.75 67.957 2.75C68.2304 2.75 68.4204 2.80667 68.527 2.92C68.6404 3.03333 68.697 3.17667 68.697 3.35V3.53C68.697 3.70333 68.6404 3.84667 68.527 3.96C68.4204 4.07333 68.2304 4.13 67.957 4.13Z" fill="#E5E7EB"/>
</svg>
